<svg width="17" height="29" viewBox="0 0 17 29" fill="currentColor" xmlns="http://www.w3.org/2000/svg">
<path d="M0.910156 14.5C0.910156 15.0379 1.11581 15.4966 1.54292 15.9079L13.8819 27.978C14.2141 28.326 14.657 28.5 15.1633 28.5C16.1915 28.5 16.9983 27.709 16.9983 26.665C16.9983 26.1588 16.7926 25.7 16.4446 25.352L5.32372 14.5L16.4446 3.64802C16.7926 3.28418 16.9983 2.82542 16.9983 2.31921C16.9983 1.29096 16.1915 0.5 15.1633 0.5C14.657 0.5 14.2141 0.674011 13.8819 1.02203L1.54292 13.0921C1.11581 13.5034 0.925975 13.9621 0.910156 14.5Z" fill="#737373"/>
</svg>
