<svg width="20" height="20" viewBox="0 0 20 20" fill="none" xmlns="http://www.w3.org/2000/svg">
<path d="M10.0013 1.66406C8.35313 1.66406 6.74196 2.1528 5.37155 3.06848C4.00114 3.98416 2.93304 5.28565 2.30231 6.80837C1.67158 8.33108 1.50655 10.0066 1.8281 11.6231C2.14964 13.2397 2.94331 14.7245 4.10875 15.89C5.27419 17.0554 6.75905 17.8491 8.37555 18.1706C9.99206 18.4922 11.6676 18.3271 13.1903 17.6964C14.7131 17.0657 16.0145 15.9976 16.9302 14.6271C17.8459 13.2567 18.3346 11.6456 18.3346 9.9974C18.3346 8.90305 18.1191 7.81941 17.7003 6.80837C17.2815 5.79732 16.6677 4.87866 15.8939 4.10484C15.12 3.33102 14.2014 2.71719 13.1903 2.2984C12.1793 1.87961 11.0957 1.66406 10.0013 1.66406ZM12.5013 10.8307H10.8346V12.4974C10.8346 12.7184 10.7468 12.9304 10.5906 13.0867C10.4343 13.2429 10.2223 13.3307 10.0013 13.3307C9.78029 13.3307 9.56833 13.2429 9.41205 13.0867C9.25577 12.9304 9.16797 12.7184 9.16797 12.4974V10.8307H7.50131C7.28029 10.8307 7.06833 10.7429 6.91205 10.5867C6.75577 10.4304 6.66797 10.2184 6.66797 9.9974C6.66797 9.77638 6.75577 9.56442 6.91205 9.40814C7.06833 9.25186 7.28029 9.16406 7.50131 9.16406H9.16797V7.4974C9.16797 7.27638 9.25577 7.06442 9.41205 6.90814C9.56833 6.75186 9.78029 6.66406 10.0013 6.66406C10.2223 6.66406 10.4343 6.75186 10.5906 6.90814C10.7468 7.06442 10.8346 7.27638 10.8346 7.4974V9.16406H12.5013C12.7223 9.16406 12.9343 9.25186 13.0906 9.40814C13.2468 9.56442 13.3346 9.77638 13.3346 9.9974C13.3346 10.2184 13.2468 10.4304 13.0906 10.5867C12.9343 10.7429 12.7223 10.8307 12.5013 10.8307Z" fill="#737373"/>
</svg>
