<svg width="16" height="16" viewBox="0 0 16 16" fill="none" xmlns="http://www.w3.org/2000/svg">
<path d="M7.9987 1.32812C6.68016 1.32812 5.39123 1.71912 4.2949 2.45166C3.19857 3.1842 2.34409 4.22539 1.8395 5.44357C1.33492 6.66174 1.2029 8.00219 1.46013 9.29539C1.71737 10.5886 2.35231 11.7765 3.28466 12.7088C4.21701 13.6412 5.40489 14.2761 6.6981 14.5334C7.99131 14.7906 9.33175 14.6586 10.5499 14.154C11.7681 13.6494 12.8093 12.7949 13.5418 11.6986C14.2744 10.6023 14.6654 9.31333 14.6654 7.99479C14.6654 7.11931 14.4929 6.25241 14.1579 5.44357C13.8229 4.63473 13.3318 3.8998 12.7127 3.28075C12.0937 2.66169 11.3588 2.17063 10.5499 1.83559C9.74109 1.50056 8.87418 1.32813 7.9987 1.32812ZM7.9987 13.3281C6.94387 13.3281 5.91272 13.0153 5.03566 12.4293C4.1586 11.8433 3.47501 11.0103 3.07134 10.0358C2.66768 9.06123 2.56206 7.98888 2.76785 6.95431C2.97363 5.91974 3.48158 4.96944 4.22746 4.22356C4.97334 3.47768 5.92365 2.96972 6.95822 2.76394C7.99278 2.55815 9.06514 2.66377 10.0397 3.06743C11.0142 3.4711 11.8472 4.15469 12.4332 5.03175C13.0192 5.90881 13.332 6.93996 13.332 7.99479C13.332 9.40928 12.7701 10.7658 11.7699 11.766C10.7697 12.7662 9.41319 13.3281 7.9987 13.3281Z" fill="#737373"/>
<path d="M8.0013 3.98442C7.38246 3.98442 6.78897 4.23025 6.35139 4.66784C5.9138 5.10542 5.66797 5.69891 5.66797 6.31775C5.66797 6.49456 5.73821 6.66413 5.86323 6.78916C5.98826 6.91418 6.15782 6.98442 6.33464 6.98442C6.51145 6.98442 6.68102 6.91418 6.80604 6.78916C6.93106 6.66413 7.0013 6.49456 7.0013 6.31775C7.0013 6.11997 7.05995 5.92663 7.16983 5.76218C7.27971 5.59773 7.43589 5.46956 7.61862 5.39387C7.80134 5.31819 8.00241 5.29838 8.19639 5.33697C8.39037 5.37555 8.56856 5.47079 8.70841 5.61065C8.84826 5.7505 8.9435 5.92868 8.98209 6.12266C9.02067 6.31664 9.00087 6.51771 8.92518 6.70044C8.84949 6.88316 8.72132 7.03934 8.55687 7.14922C8.39242 7.2591 8.19908 7.31775 8.0013 7.31775C7.82449 7.31775 7.65492 7.38799 7.5299 7.51302C7.40487 7.63804 7.33464 7.80761 7.33464 7.98442V9.31775C7.33464 9.49456 7.40487 9.66413 7.5299 9.78916C7.65492 9.91418 7.82449 9.98442 8.0013 9.98442C8.17811 9.98442 8.34768 9.91418 8.47271 9.78916C8.59773 9.66413 8.66797 9.49456 8.66797 9.31775V8.54442C9.2067 8.38709 9.67041 8.04033 9.97363 7.56805C10.2768 7.09577 10.3991 6.5298 10.3179 5.97446C10.2367 5.41913 9.95756 4.91186 9.53183 4.54615C9.1061 4.18044 8.56253 3.98094 8.0013 3.98442Z" fill="#737373"/>
<path d="M7.9987 12.0052C8.36689 12.0052 8.66536 11.7067 8.66536 11.3385C8.66536 10.9704 8.36689 10.6719 7.9987 10.6719C7.63051 10.6719 7.33203 10.9704 7.33203 11.3385C7.33203 11.7067 7.63051 12.0052 7.9987 12.0052Z" fill="#737373"/>
</svg>
