<svg width="26" height="27" viewBox="0 0 26 27" fill="none" xmlns="http://www.w3.org/2000/svg">
<path d="M20.258 11.0712C20.3607 11.169 20.4424 11.2867 20.4982 11.417C20.5541 11.5474 20.5829 11.6877 20.5829 11.8295C20.5829 11.9713 20.5541 12.1116 20.4982 12.242C20.4424 12.3723 20.3607 12.49 20.258 12.5878L17.0082 15.8377C16.9103 15.9403 16.7927 16.022 16.6623 16.0779C16.532 16.1337 16.3917 16.1625 16.2499 16.1625C16.1081 16.1625 15.9677 16.1337 15.8374 16.0779C15.707 16.022 15.5894 15.9403 15.4916 15.8377C15.3889 15.7399 15.3072 15.6222 15.2514 15.4919C15.1955 15.3615 15.1667 15.2212 15.1667 15.0794C15.1667 14.9376 15.1955 14.7973 15.2514 14.6669C15.3072 14.5366 15.3889 14.4189 15.4916 14.3211L16.8998 12.9128H10.8334C10.2593 12.9145 9.70926 13.1433 9.30332 13.5493C8.89738 13.9552 8.66856 14.5053 8.66685 15.0794C8.67554 15.2239 8.65347 15.3686 8.6021 15.504C8.55073 15.6394 8.47124 15.7623 8.36886 15.8647C8.26648 15.9671 8.14355 16.0466 8.00818 16.0979C7.87281 16.1493 7.72809 16.1714 7.58356 16.1627C7.43904 16.1714 7.29431 16.1493 7.15894 16.0979C7.02358 16.0466 6.90064 15.9671 6.79827 15.8647C6.69589 15.7623 6.61639 15.6394 6.56502 15.504C6.51365 15.3686 6.49159 15.2239 6.50027 15.0794C6.5037 13.9312 6.96133 12.8311 7.77321 12.0192C8.58509 11.2073 9.68526 10.7497 10.8334 10.7462H16.8998L15.4916 9.33796C15.2938 9.13615 15.1837 8.86445 15.1851 8.5819C15.1865 8.29935 15.2994 8.02877 15.4992 7.82898C15.699 7.62918 15.9696 7.5163 16.2521 7.51487C16.5347 7.51345 16.8064 7.62358 17.0082 7.82135L20.258 11.0712ZM25.9995 5.32979V19.4125C26.0074 19.8415 25.9288 20.2677 25.7682 20.6655C25.6077 21.0634 25.3686 21.4248 25.0653 21.7282C24.7619 22.0316 24.4005 22.2707 24.0026 22.4312C23.6047 22.5917 23.1786 22.6703 22.7496 22.6624H11.2667L7.25857 26.6706C7.16325 26.7764 7.04607 26.8603 6.91514 26.9164C6.78422 26.9725 6.64266 26.9995 6.50027 26.9955C6.34757 27.0118 6.19407 26.9734 6.06696 26.8872C5.86501 26.8211 5.69115 26.689 5.57328 26.5122C5.4554 26.3354 5.40036 26.1241 5.41699 25.9123V22.6624H3.25041C2.82145 22.6703 2.39529 22.5917 1.99741 22.4312C1.59953 22.2707 1.2381 22.0316 0.934729 21.7282C0.631356 21.4248 0.392267 21.0634 0.231756 20.6655C0.0712457 20.2677 -0.00739134 19.8415 0.000546276 19.4125V4.2465C-0.00739134 3.81754 0.0712457 3.39138 0.231756 2.99351C0.392267 2.59563 0.631356 2.2342 0.934729 1.93082C1.2381 1.62745 1.59953 1.38836 1.99741 1.22785C2.39529 1.06734 2.82145 0.988702 3.25041 0.99664H21.6663C22.8145 1.00007 23.9146 1.4577 24.7265 2.26958C25.5384 3.08146 25.996 4.18162 25.9995 5.32979ZM23.8329 5.32979C23.8312 4.75571 23.6024 4.20563 23.1964 3.79969C22.7905 3.39374 22.2404 3.16493 21.6663 3.16322H3.25041C3.10588 3.15453 2.96116 3.1766 2.82579 3.22796C2.69043 3.27933 2.56749 3.35883 2.46511 3.46121C2.36274 3.56359 2.28324 3.68652 2.23187 3.82189C2.1805 3.95725 2.15843 4.10198 2.16712 4.2465V19.4125C2.15843 19.5571 2.1805 19.7018 2.23187 19.8371C2.28324 19.9725 2.36274 20.0954 2.46511 20.1978C2.56749 20.3002 2.69043 20.3797 2.82579 20.4311C2.96116 20.4824 3.10588 20.5045 3.25041 20.4958H6.50027C6.6448 20.4871 6.78952 20.5092 6.92489 20.5606C7.06026 20.6119 7.18319 20.6914 7.28557 20.7938C7.38795 20.8962 7.46745 21.0191 7.51881 21.1545C7.57018 21.2899 7.59225 21.4346 7.58356 21.5791V23.3124L10.0751 20.8208C10.1705 20.715 10.2876 20.6311 10.4186 20.575C10.5495 20.5189 10.691 20.4919 10.8334 20.4958H22.7496C22.8941 20.5045 23.0388 20.4824 23.1742 20.4311C23.3096 20.3797 23.4325 20.3002 23.5349 20.1978C23.6373 20.0954 23.7168 19.9725 23.7681 19.8371C23.8195 19.7018 23.8416 19.5571 23.8329 19.4125V5.32979Z" fill="currentColor"/>
</svg>
