<svg width="18" height="18" viewBox="0 0 18 18" fill="currentColor" xmlns="http://www.w3.org/2000/svg">
<path d="M1.5 18C1.1 18 0.75 17.85 0.45 17.55C0.15 17.25 0 16.9 0 16.5V1.5C0 1.1 0.150442 0.75 0.451325 0.45C0.752225 0.15 1.1033 0 1.50455 0H11.375V1.5H1.5V16.5H16.5V6.625H18V16.5C18 16.9 17.85 17.25 17.55 17.55C17.25 17.85 16.9 18 16.5 18H1.5ZM5.025 14.075V12.575H13V14.075H5.025ZM5.025 10.9V9.4H13V10.9H5.025ZM5.025 7.725V6.225H13V7.725H5.025ZM14.325 5.875V3.7H12.125V2.2H14.325V0H15.8125V2.2H18V3.7H15.8125V5.875H14.325Z" fill="#949292"/>
</svg>
