<svg width="32" height="32" viewBox="0 0 32 32" fill="none" xmlns="http://www.w3.org/2000/svg">
<rect width="32" height="32" rx="3" fill="black"/>
<path d="M16.1256 6.01667C17.2173 6 18.3006 6.00833 19.3839 6C19.4506 7.27498 19.9089 8.57497 20.8422 9.47496C21.7756 10.3999 23.0922 10.8249 24.3755 10.9666V14.3249C23.1755 14.2832 21.9672 14.0332 20.8756 13.5166C20.4006 13.2999 19.9589 13.0249 19.5256 12.7416C19.5173 15.1749 19.5339 17.6082 19.5089 20.0332C19.4423 21.1998 19.0589 22.3581 18.3839 23.3165C17.2923 24.9164 15.4006 25.9581 13.459 25.9914C12.2674 26.0581 11.0757 25.7331 10.059 25.1331C8.37573 24.1414 7.19242 22.3248 7.01742 20.3748C7.00075 19.9582 6.99242 19.5415 7.00908 19.1332C7.15908 17.5499 7.94241 16.0332 9.15906 14.9999C10.5424 13.7999 12.4757 13.2249 14.284 13.5666C14.3007 14.7999 14.2507 16.0332 14.2507 17.2665C13.4257 16.9999 12.459 17.0749 11.734 17.5749C11.209 17.9165 10.809 18.4415 10.6007 19.0332C10.4257 19.4582 10.4757 19.9248 10.484 20.3748C10.684 21.7415 12.0007 22.8915 13.4007 22.7665C14.334 22.7581 15.2256 22.2165 15.709 21.4248C15.8673 21.1498 16.0423 20.8665 16.0506 20.5415C16.134 19.0498 16.1006 17.5665 16.109 16.0749C16.1173 12.7166 16.1006 9.36662 16.1256 6.01667Z" fill="white"/>
</svg>
