<svg width="1186" height="1072" viewBox="0 0 1186 1072" fill="none" xmlns="http://www.w3.org/2000/svg">
<path d="M592.636 1070C604.179 1070 613.537 797.118 613.537 460.5C613.537 123.882 604.179 -149 592.636 -149C581.092 -149 571.734 123.882 571.734 460.5C571.734 797.118 581.092 1070 592.636 1070Z" stroke="url(#paint0_linear_67_1513)" stroke-width="3" stroke-miterlimit="10"/>
<path d="M592.636 1070C605.245 1070 615.466 797.118 615.466 460.5C615.466 123.882 605.245 -149 592.636 -149C580.026 -149 569.805 123.882 569.805 460.5C569.805 797.118 580.026 1070 592.636 1070Z" stroke="url(#paint1_linear_67_1513)" stroke-width="3" stroke-miterlimit="10"/>
<path d="M592.635 1070C606.31 1070 617.395 797.118 617.395 460.5C617.395 123.882 606.31 -149 592.635 -149C578.961 -149 567.875 123.882 567.875 460.5C567.875 797.118 578.961 1070 592.635 1070Z" stroke="url(#paint2_linear_67_1513)" stroke-width="3" stroke-miterlimit="10"/>
<path d="M592.636 1070C607.554 1070 619.647 797.118 619.647 460.5C619.647 123.882 607.554 -149 592.636 -149C577.718 -149 565.625 123.882 565.625 460.5C565.625 797.118 577.718 1070 592.636 1070Z" stroke="url(#paint3_linear_67_1513)" stroke-width="3" stroke-miterlimit="10"/>
<path d="M592.637 1070C608.798 1070 621.899 797.118 621.899 460.5C621.899 123.882 608.798 -149 592.637 -149C576.476 -149 563.375 123.882 563.375 460.5C563.375 797.118 576.476 1070 592.637 1070Z" stroke="url(#paint4_linear_67_1513)" stroke-width="3" stroke-miterlimit="10"/>
<path d="M592.635 1070C610.217 1070 624.47 797.118 624.47 460.5C624.47 123.882 610.217 -149 592.635 -149C575.054 -149 560.801 123.882 560.801 460.5C560.801 797.118 575.054 1070 592.635 1070Z" stroke="url(#paint5_linear_67_1513)" stroke-width="3" stroke-miterlimit="10"/>
<path d="M592.635 1070C611.815 1070 627.364 797.118 627.364 460.5C627.364 123.882 611.815 -149 592.635 -149C573.455 -149 557.906 123.882 557.906 460.5C557.906 797.118 573.455 1070 592.635 1070Z" stroke="url(#paint6_linear_67_1513)" stroke-width="3" stroke-miterlimit="10"/>
<path d="M592.634 1070C613.413 1070 630.257 797.118 630.257 460.5C630.257 123.882 613.413 -149 592.634 -149C571.856 -149 555.012 123.882 555.012 460.5C555.012 797.118 571.856 1070 592.634 1070Z" stroke="url(#paint7_linear_67_1513)" stroke-width="3" stroke-miterlimit="10"/>
<path d="M592.635 1070C615.19 1070 633.474 797.118 633.474 460.5C633.474 123.882 615.19 -149 592.635 -149C570.081 -149 551.797 123.882 551.797 460.5C551.797 797.118 570.081 1070 592.635 1070Z" stroke="url(#paint8_linear_67_1513)" stroke-width="3" stroke-miterlimit="10"/>
<path d="M592.635 1070C617.32 1070 637.332 797.118 637.332 460.5C637.332 123.882 617.32 -149 592.635 -149C567.949 -149 547.938 123.882 547.938 460.5C547.938 797.118 567.949 1070 592.635 1070Z" stroke="url(#paint9_linear_67_1513)" stroke-width="3" stroke-miterlimit="10"/>
<path d="M592.638 1070C619.454 1070 641.194 797.118 641.194 460.5C641.194 123.882 619.454 -149 592.638 -149C565.821 -149 544.082 123.882 544.082 460.5C544.082 797.118 565.821 1070 592.638 1070Z" stroke="url(#paint10_linear_67_1513)" stroke-width="3" stroke-miterlimit="10"/>
<path d="M592.635 1070C621.76 1070 645.371 797.118 645.371 460.5C645.371 123.882 621.76 -149 592.635 -149C563.509 -149 539.898 123.882 539.898 460.5C539.898 797.118 563.509 1070 592.635 1070Z" stroke="url(#paint11_linear_67_1513)" stroke-width="3" stroke-miterlimit="10"/>
<path d="M592.636 1070C624.248 1070 649.874 797.118 649.874 460.5C649.874 123.882 624.248 -149 592.636 -149C561.025 -149 535.398 123.882 535.398 460.5C535.398 797.118 561.025 1070 592.636 1070Z" stroke="url(#paint12_linear_67_1513)" stroke-width="3" stroke-miterlimit="10"/>
<path d="M592.636 1070C626.911 1070 654.697 797.118 654.697 460.5C654.697 123.882 626.911 -149 592.636 -149C558.36 -149 530.574 123.882 530.574 460.5C530.574 797.118 558.36 1070 592.636 1070Z" stroke="url(#paint13_linear_67_1513)" stroke-width="3" stroke-miterlimit="10"/>
<path d="M592.637 1070C629.932 1070 660.165 797.118 660.165 460.5C660.165 123.882 629.932 -149 592.637 -149C555.343 -149 525.109 123.882 525.109 460.5C525.109 797.118 555.343 1070 592.637 1070Z" stroke="url(#paint14_linear_67_1513)" stroke-width="3" stroke-miterlimit="10"/>
<path d="M592.638 1070C633.307 1070 666.275 797.118 666.275 460.5C666.275 123.882 633.307 -149 592.638 -149C551.969 -149 519 123.882 519 460.5C519 797.118 551.969 1070 592.638 1070Z" stroke="url(#paint15_linear_67_1513)" stroke-width="3" stroke-miterlimit="10"/>
<path d="M592.634 1070C636.677 1070 672.381 797.118 672.381 460.5C672.381 123.882 636.677 -149 592.634 -149C548.591 -149 512.887 123.882 512.887 460.5C512.887 797.118 548.591 1070 592.634 1070Z" stroke="url(#paint16_linear_67_1513)" stroke-width="3" stroke-miterlimit="10"/>
<path d="M592.638 1070C640.588 1070 679.46 797.118 679.46 460.5C679.46 123.882 640.588 -149 592.638 -149C544.688 -149 505.816 123.882 505.816 460.5C505.816 797.118 544.688 1070 592.638 1070Z" stroke="url(#paint17_linear_67_1513)" stroke-width="3" stroke-miterlimit="10"/>
<path d="M592.636 1070C644.67 1070 686.853 797.118 686.853 460.5C686.853 123.882 644.67 -149 592.636 -149C540.601 -149 498.418 123.882 498.418 460.5C498.418 797.118 540.601 1070 592.636 1070Z" stroke="url(#paint18_linear_67_1513)" stroke-width="3" stroke-miterlimit="10"/>
<path d="M592.637 1070C649.289 1070 695.215 797.118 695.215 460.5C695.215 123.882 649.289 -149 592.637 -149C535.984 -149 490.059 123.882 490.059 460.5C490.059 797.118 535.984 1070 592.637 1070Z" stroke="url(#paint19_linear_67_1513)" stroke-width="3" stroke-miterlimit="10"/>
<path d="M592.637 1070C654.262 1070 704.218 797.118 704.218 460.5C704.218 123.882 654.262 -149 592.637 -149C531.012 -149 481.055 123.882 481.055 460.5C481.055 797.118 531.012 1070 592.637 1070Z" stroke="url(#paint20_linear_67_1513)" stroke-width="3" stroke-miterlimit="10"/>
<path d="M592.635 1070C659.588 1070 713.864 797.118 713.864 460.5C713.864 123.882 659.588 -149 592.635 -149C525.682 -149 471.406 123.882 471.406 460.5C471.406 797.118 525.682 1070 592.635 1070Z" stroke="url(#paint21_linear_67_1513)" stroke-width="3" stroke-miterlimit="10"/>
<path d="M592.637 1070C665.451 1070 724.477 797.118 724.477 460.5C724.477 123.882 665.451 -149 592.637 -149C519.824 -149 460.797 123.882 460.797 460.5C460.797 797.118 519.824 1070 592.637 1070Z" stroke="url(#paint22_linear_67_1513)" stroke-width="3" stroke-miterlimit="10"/>
<path d="M592.634 1070C671.663 1070 735.729 797.118 735.729 460.5C735.729 123.882 671.663 -149 592.634 -149C513.605 -149 449.539 123.882 449.539 460.5C449.539 797.118 513.605 1070 592.634 1070Z" stroke="url(#paint23_linear_67_1513)" stroke-width="3" stroke-miterlimit="10"/>
<path d="M592.636 1070C678.591 1070 748.272 797.118 748.272 460.5C748.272 123.882 678.591 -149 592.636 -149C506.681 -149 437 123.882 437 460.5C437 797.118 506.681 1070 592.636 1070Z" stroke="url(#paint24_linear_67_1513)" stroke-width="3" stroke-miterlimit="10"/>
<path d="M592.634 1070C686.048 1070 761.775 797.118 761.775 460.5C761.775 123.882 686.048 -149 592.634 -149C499.219 -149 423.492 123.882 423.492 460.5C423.492 797.118 499.219 1070 592.634 1070Z" stroke="url(#paint25_linear_67_1513)" stroke-width="3" stroke-miterlimit="10"/>
<path d="M592.636 1070C694.22 1070 776.57 797.118 776.57 460.5C776.57 123.882 694.22 -149 592.636 -149C491.053 -149 408.703 123.882 408.703 460.5C408.703 797.118 491.053 1070 592.636 1070Z" stroke="url(#paint26_linear_67_1513)" stroke-width="3" stroke-miterlimit="10"/>
<path d="M592.636 1070C703.1 1070 792.648 797.118 792.648 460.5C792.648 123.882 703.1 -149 592.636 -149C482.173 -149 392.625 123.882 392.625 460.5C392.625 797.118 482.173 1070 592.636 1070Z" stroke="url(#paint27_linear_67_1513)" stroke-width="3" stroke-miterlimit="10"/>
<path d="M592.633 1070C712.687 1070 810.009 797.118 810.009 460.5C810.009 123.882 712.687 -149 592.633 -149C472.58 -149 375.258 123.882 375.258 460.5C375.258 797.118 472.58 1070 592.633 1070Z" stroke="url(#paint28_linear_67_1513)" stroke-width="3" stroke-miterlimit="10"/>
<path d="M592.636 1070C722.989 1070 828.662 797.118 828.662 460.5C828.662 123.882 722.989 -149 592.636 -149C462.282 -149 356.609 123.882 356.609 460.5C356.609 797.118 462.282 1070 592.636 1070Z" stroke="url(#paint29_linear_67_1513)" stroke-width="3" stroke-miterlimit="10"/>
<path d="M592.637 1070C734.357 1070 849.244 797.118 849.244 460.5C849.244 123.882 734.357 -149 592.637 -149C450.918 -149 336.031 123.882 336.031 460.5C336.031 797.118 450.918 1070 592.637 1070Z" stroke="url(#paint30_linear_67_1513)" stroke-width="3" stroke-miterlimit="10"/>
<path d="M592.635 1070C746.786 1070 871.751 797.118 871.751 460.5C871.751 123.882 746.786 -149 592.635 -149C438.484 -149 313.52 123.882 313.52 460.5C313.52 797.118 438.484 1070 592.635 1070Z" stroke="url(#paint31_linear_67_1513)" stroke-width="3" stroke-miterlimit="10"/>
<path d="M592.635 1070C760.106 1070 895.868 797.118 895.868 460.5C895.868 123.882 760.106 -149 592.635 -149C425.164 -149 289.402 123.882 289.402 460.5C289.402 797.118 425.164 1070 592.635 1070Z" stroke="url(#paint32_linear_67_1513)" stroke-width="3" stroke-miterlimit="10"/>
<path d="M592.636 1070C774.669 1070 922.237 797.118 922.237 460.5C922.237 123.882 774.669 -149 592.636 -149C410.602 -149 263.035 123.882 263.035 460.5C263.035 797.118 410.602 1070 592.636 1070Z" stroke="url(#paint33_linear_67_1513)" stroke-width="3" stroke-miterlimit="10"/>
<path d="M592.634 1070C790.473 1070 950.853 797.118 950.853 460.5C950.853 123.882 790.473 -149 592.634 -149C394.794 -149 234.414 123.882 234.414 460.5C234.414 797.118 394.794 1070 592.634 1070Z" stroke="url(#paint34_linear_67_1513)" stroke-width="3" stroke-miterlimit="10"/>
<path d="M592.634 1070C807.7 1070 982.045 797.118 982.045 460.5C982.045 123.882 807.7 -149 592.634 -149C377.568 -149 203.223 123.882 203.223 460.5C203.223 797.118 377.568 1070 592.634 1070Z" stroke="url(#paint35_linear_67_1513)" stroke-width="3" stroke-miterlimit="10"/>
<path d="M592.636 1070C826.349 1070 1015.81 797.118 1015.81 460.5C1015.81 123.882 826.349 -149 592.636 -149C358.923 -149 169.461 123.882 169.461 460.5C169.461 797.118 358.923 1070 592.636 1070Z" stroke="url(#paint36_linear_67_1513)" stroke-width="3" stroke-miterlimit="10"/>
<path d="M592.635 1070C846.772 1070 1052.79 797.118 1052.79 460.5C1052.79 123.882 846.772 -149 592.635 -149C338.499 -149 132.48 123.882 132.48 460.5C132.48 797.118 338.499 1070 592.635 1070Z" stroke="url(#paint37_linear_67_1513)" stroke-width="3" stroke-miterlimit="10"/>
<path d="M592.638 1070C868.796 1070 1092.67 797.118 1092.67 460.5C1092.67 123.882 868.796 -149 592.638 -149C316.48 -149 92.6094 123.882 92.6094 460.5C92.6094 797.118 316.48 1070 592.638 1070Z" stroke="url(#paint38_linear_67_1513)" stroke-width="3" stroke-miterlimit="10"/>
<path d="M592.636 1070C892.947 1070 1136.4 797.118 1136.4 460.5C1136.4 123.882 892.947 -149 592.636 -149C292.325 -149 48.875 123.882 48.875 460.5C48.875 797.118 292.325 1070 592.636 1070Z" stroke="url(#paint39_linear_67_1513)" stroke-width="3" stroke-miterlimit="10"/>
<path d="M592.636 1070C919.053 1070 1183.67 797.118 1183.67 460.5C1183.67 123.882 919.053 -149 592.636 -149C266.219 -149 1.60547 123.882 1.60547 460.5C1.60547 797.118 266.219 1070 592.636 1070Z" stroke="url(#paint40_linear_67_1513)" stroke-width="3" stroke-miterlimit="10"/>
<defs>
<linearGradient id="paint0_linear_67_1513" x1="571.734" y1="-180.604" x2="670.852" y2="-175.983" gradientUnits="userSpaceOnUse">
<stop stop-color="#FD337E"/>
<stop offset="1" stop-color="#FCE942"/>
</linearGradient>
<linearGradient id="paint1_linear_67_1513" x1="569.805" y1="-180.604" x2="678.026" y2="-175.093" gradientUnits="userSpaceOnUse">
<stop stop-color="#FD337E"/>
<stop offset="1" stop-color="#FCE942"/>
</linearGradient>
<linearGradient id="paint2_linear_67_1513" x1="567.875" y1="-180.604" x2="685.189" y2="-174.125" gradientUnits="userSpaceOnUse">
<stop stop-color="#FD337E"/>
<stop offset="1" stop-color="#FCE942"/>
</linearGradient>
<linearGradient id="paint3_linear_67_1513" x1="565.625" y1="-180.604" x2="693.53" y2="-172.898" gradientUnits="userSpaceOnUse">
<stop stop-color="#FD337E"/>
<stop offset="1" stop-color="#FCE942"/>
</linearGradient>
<linearGradient id="paint4_linear_67_1513" x1="563.375" y1="-180.604" x2="701.851" y2="-171.566" gradientUnits="userSpaceOnUse">
<stop stop-color="#FD337E"/>
<stop offset="1" stop-color="#FCE942"/>
</linearGradient>
<linearGradient id="paint5_linear_67_1513" x1="560.801" y1="-180.604" x2="711.334" y2="-169.915" gradientUnits="userSpaceOnUse">
<stop stop-color="#FD337E"/>
<stop offset="1" stop-color="#FCE942"/>
</linearGradient>
<linearGradient id="paint6_linear_67_1513" x1="557.906" y1="-180.604" x2="721.968" y2="-167.895" gradientUnits="userSpaceOnUse">
<stop stop-color="#FD337E"/>
<stop offset="1" stop-color="#FCE942"/>
</linearGradient>
<linearGradient id="paint7_linear_67_1513" x1="555.012" y1="-180.604" x2="732.561" y2="-165.705" gradientUnits="userSpaceOnUse">
<stop stop-color="#FD337E"/>
<stop offset="1" stop-color="#FCE942"/>
</linearGradient>
<linearGradient id="paint8_linear_67_1513" x1="551.797" y1="-180.604" x2="744.281" y2="-163.071" gradientUnits="userSpaceOnUse">
<stop stop-color="#FD337E"/>
<stop offset="1" stop-color="#FCE942"/>
</linearGradient>
<linearGradient id="paint9_linear_67_1513" x1="547.938" y1="-180.604" x2="758.267" y2="-159.635" gradientUnits="userSpaceOnUse">
<stop stop-color="#FD337E"/>
<stop offset="1" stop-color="#FCE942"/>
</linearGradient>
<linearGradient id="paint10_linear_67_1513" x1="544.082" y1="-180.604" x2="772.165" y2="-155.902" gradientUnits="userSpaceOnUse">
<stop stop-color="#FD337E"/>
<stop offset="1" stop-color="#FCE942"/>
</linearGradient>
<linearGradient id="paint11_linear_67_1513" x1="539.898" y1="-180.604" x2="787.103" y2="-151.526" gradientUnits="userSpaceOnUse">
<stop stop-color="#FD337E"/>
<stop offset="1" stop-color="#FCE942"/>
</linearGradient>
<linearGradient id="paint12_linear_67_1513" x1="535.398" y1="-180.604" x2="803.056" y2="-146.433" gradientUnits="userSpaceOnUse">
<stop stop-color="#FD337E"/>
<stop offset="1" stop-color="#FCE942"/>
</linearGradient>
<linearGradient id="paint13_linear_67_1513" x1="530.574" y1="-180.604" x2="819.972" y2="-140.544" gradientUnits="userSpaceOnUse">
<stop stop-color="#FD337E"/>
<stop offset="1" stop-color="#FCE942"/>
</linearGradient>
<linearGradient id="paint14_linear_67_1513" x1="525.109" y1="-180.604" x2="838.913" y2="-133.34" gradientUnits="userSpaceOnUse">
<stop stop-color="#FD337E"/>
<stop offset="1" stop-color="#FCE942"/>
</linearGradient>
<linearGradient id="paint15_linear_67_1513" x1="519" y1="-180.604" x2="859.766" y2="-124.635" gradientUnits="userSpaceOnUse">
<stop stop-color="#FD337E"/>
<stop offset="1" stop-color="#FCE942"/>
</linearGradient>
<linearGradient id="paint16_linear_67_1513" x1="512.887" y1="-180.604" x2="880.258" y2="-115.259" gradientUnits="userSpaceOnUse">
<stop stop-color="#FD337E"/>
<stop offset="1" stop-color="#FCE942"/>
</linearGradient>
<linearGradient id="paint17_linear_67_1513" x1="505.816" y1="-180.604" x2="903.517" y2="-103.589" gradientUnits="userSpaceOnUse">
<stop stop-color="#FD337E"/>
<stop offset="1" stop-color="#FCE942"/>
</linearGradient>
<linearGradient id="paint18_linear_67_1513" x1="498.418" y1="-180.604" x2="927.243" y2="-90.4875" gradientUnits="userSpaceOnUse">
<stop stop-color="#FD337E"/>
<stop offset="1" stop-color="#FCE942"/>
</linearGradient>
<linearGradient id="paint19_linear_67_1513" x1="490.059" y1="-180.604" x2="953.305" y2="-74.6154" gradientUnits="userSpaceOnUse">
<stop stop-color="#FD337E"/>
<stop offset="1" stop-color="#FCE942"/>
</linearGradient>
<linearGradient id="paint20_linear_67_1513" x1="481.055" y1="-180.604" x2="980.411" y2="-56.3257" gradientUnits="userSpaceOnUse">
<stop stop-color="#FD337E"/>
<stop offset="1" stop-color="#FCE942"/>
</linearGradient>
<linearGradient id="paint21_linear_67_1513" x1="471.406" y1="-180.604" x2="1008.29" y2="-35.4351" gradientUnits="userSpaceOnUse">
<stop stop-color="#FD337E"/>
<stop offset="1" stop-color="#FCE942"/>
</linearGradient>
<linearGradient id="paint22_linear_67_1513" x1="460.797" y1="-180.604" x2="1037.49" y2="-11.0199" gradientUnits="userSpaceOnUse">
<stop stop-color="#FD337E"/>
<stop offset="1" stop-color="#FCE942"/>
</linearGradient>
<linearGradient id="paint23_linear_67_1513" x1="449.539" y1="-180.604" x2="1066.72" y2="16.3783" gradientUnits="userSpaceOnUse">
<stop stop-color="#FD337E"/>
<stop offset="1" stop-color="#FCE942"/>
</linearGradient>
<linearGradient id="paint24_linear_67_1513" x1="437" y1="-180.604" x2="1097.1" y2="48.5426" gradientUnits="userSpaceOnUse">
<stop stop-color="#FD337E"/>
<stop offset="1" stop-color="#FCE942"/>
</linearGradient>
<linearGradient id="paint25_linear_67_1513" x1="423.492" y1="-180.604" x2="1127.17" y2="84.8673" gradientUnits="userSpaceOnUse">
<stop stop-color="#FD337E"/>
<stop offset="1" stop-color="#FCE942"/>
</linearGradient>
<linearGradient id="paint26_linear_67_1513" x1="408.703" y1="-180.604" x2="1156.91" y2="126.348" gradientUnits="userSpaceOnUse">
<stop stop-color="#FD337E"/>
<stop offset="1" stop-color="#FCE942"/>
</linearGradient>
<linearGradient id="paint27_linear_67_1513" x1="392.625" y1="-180.604" x2="1185.39" y2="173.06" gradientUnits="userSpaceOnUse">
<stop stop-color="#FD337E"/>
<stop offset="1" stop-color="#FCE942"/>
</linearGradient>
<linearGradient id="paint28_linear_67_1513" x1="375.258" y1="-180.604" x2="1211.7" y2="224.938" gradientUnits="userSpaceOnUse">
<stop stop-color="#FD337E"/>
<stop offset="1" stop-color="#FCE942"/>
</linearGradient>
<linearGradient id="paint29_linear_67_1513" x1="356.609" y1="-180.604" x2="1234.9" y2="281.765" gradientUnits="userSpaceOnUse">
<stop stop-color="#FD337E"/>
<stop offset="1" stop-color="#FCE942"/>
</linearGradient>
<linearGradient id="paint30_linear_67_1513" x1="336.031" y1="-180.604" x2="1254.62" y2="345.148" gradientUnits="userSpaceOnUse">
<stop stop-color="#FD337E"/>
<stop offset="1" stop-color="#FCE942"/>
</linearGradient>
<linearGradient id="paint31_linear_67_1513" x1="313.52" y1="-180.604" x2="1269.49" y2="414.538" gradientUnits="userSpaceOnUse">
<stop stop-color="#FD337E"/>
<stop offset="1" stop-color="#FCE942"/>
</linearGradient>
<linearGradient id="paint32_linear_67_1513" x1="289.402" y1="-180.604" x2="1278.19" y2="488.153" gradientUnits="userSpaceOnUse">
<stop stop-color="#FD337E"/>
<stop offset="1" stop-color="#FCE942"/>
</linearGradient>
<linearGradient id="paint33_linear_67_1513" x1="263.035" y1="-180.604" x2="1279.88" y2="566.937" gradientUnits="userSpaceOnUse">
<stop stop-color="#FD337E"/>
<stop offset="1" stop-color="#FCE942"/>
</linearGradient>
<linearGradient id="paint34_linear_67_1513" x1="234.414" y1="-180.604" x2="1273.5" y2="649.612" gradientUnits="userSpaceOnUse">
<stop stop-color="#FD337E"/>
<stop offset="1" stop-color="#FCE942"/>
</linearGradient>
<linearGradient id="paint35_linear_67_1513" x1="203.223" y1="-180.604" x2="1258.09" y2="735.61" gradientUnits="userSpaceOnUse">
<stop stop-color="#FD337E"/>
<stop offset="1" stop-color="#FCE942"/>
</linearGradient>
<linearGradient id="paint36_linear_67_1513" x1="169.461" y1="-180.604" x2="1233.04" y2="823.277" gradientUnits="userSpaceOnUse">
<stop stop-color="#FD337E"/>
<stop offset="1" stop-color="#FCE942"/>
</linearGradient>
<linearGradient id="paint37_linear_67_1513" x1="132.48" y1="-180.604" x2="1197.48" y2="912.455" gradientUnits="userSpaceOnUse">
<stop stop-color="#FD337E"/>
<stop offset="1" stop-color="#FCE942"/>
</linearGradient>
<linearGradient id="paint38_linear_67_1513" x1="92.6094" y1="-180.604" x2="1151.66" y2="1000.54" gradientUnits="userSpaceOnUse">
<stop stop-color="#FD337E"/>
<stop offset="1" stop-color="#FCE942"/>
</linearGradient>
<linearGradient id="paint39_linear_67_1513" x1="48.875" y1="-180.604" x2="1094.7" y2="1087.81" gradientUnits="userSpaceOnUse">
<stop stop-color="#FD337E"/>
<stop offset="1" stop-color="#FCE942"/>
</linearGradient>
<linearGradient id="paint40_linear_67_1513" x1="1.60548" y1="-180.604" x2="1027.55" y2="1171.86" gradientUnits="userSpaceOnUse">
<stop stop-color="#FD337E"/>
<stop offset="1" stop-color="#FCE942"/>
</linearGradient>
</defs>
</svg>
