<svg width="26" height="29" viewBox="0 0 26 29" fill="none" xmlns="http://www.w3.org/2000/svg">
<path d="M13 2.99826C11.4676 2.99826 9.99804 3.60699 8.91449 4.69054C7.83095 5.77408 7.22222 7.24368 7.22222 8.77604C7.22222 10.3084 7.83095 11.778 8.91449 12.8615C9.99804 13.9451 11.4676 14.5538 13 14.5538C14.5324 14.5538 16.002 13.9451 17.0855 12.8615C18.1691 11.778 18.7778 10.3084 18.7778 8.77604C18.7778 7.24368 18.1691 5.77408 17.0855 4.69054C16.002 3.60699 14.5324 2.99826 13 2.99826ZM4.33333 8.77604C4.33333 6.4775 5.24643 4.2731 6.87174 2.64778C8.49706 1.02247 10.7015 0.109375 13 0.109375C15.2985 0.109375 17.5029 1.02247 19.1283 2.64778C20.7536 4.2731 21.6667 6.4775 21.6667 8.77604C21.6667 11.0746 20.7536 13.279 19.1283 14.9043C17.5029 16.5296 15.2985 17.4427 13 17.4427C10.7015 17.4427 8.49706 16.5296 6.87174 14.9043C5.24643 13.279 4.33333 11.0746 4.33333 8.77604ZM7.22222 23.2205C6.07295 23.2205 4.97075 23.677 4.15809 24.4897C3.34544 25.3023 2.88889 26.4045 2.88889 27.5538C2.88889 27.9369 2.73671 28.3043 2.46582 28.5752C2.19493 28.8461 1.82753 28.9983 1.44444 28.9983C1.06135 28.9983 0.693954 28.8461 0.423068 28.5752C0.152182 28.3043 0 27.9369 0 27.5538C0 25.6384 0.76091 23.8014 2.11534 22.4469C3.46977 21.0925 5.30677 20.3316 7.22222 20.3316H18.7778C20.6932 20.3316 22.5302 21.0925 23.8847 22.4469C25.2391 23.8014 26 25.6384 26 27.5538C26 27.9369 25.8478 28.3043 25.5769 28.5752C25.306 28.8461 24.9386 28.9983 24.5556 28.9983C24.1725 28.9983 23.8051 28.8461 23.5342 28.5752C23.2633 28.3043 23.1111 27.9369 23.1111 27.5538C23.1111 26.4045 22.6546 25.3023 21.8419 24.4897C21.0292 23.677 19.927 23.2205 18.7778 23.2205H7.22222Z" fill="currentColor"/>
</svg>
